<svg xmlns="http://www.w3.org/2000/svg" xmlns:xlink="http://www.w3.org/1999/xlink" width="400" zoomAndPan="magnify" viewBox="0 0 300 299.999988" height="400" preserveAspectRatio="xMidYMid meet" version="1.0"><defs><clipPath id="c7e1e17ef5"><path d="M 140 90 L 210 90 L 210 231 L 140 231 Z M 140 90 " clip-rule="nonzero"/></clipPath><clipPath id="1ad568d2f2"><path d="M 70 230 L 210 230 L 210 300 L 70 300 Z M 70 230 " clip-rule="nonzero"/></clipPath></defs><path fill="#ff4d39" d="M 0 300.015625 L 70.003906 300.015625 C 70.003906 261.351562 38.660156 230.011719 0 230.011719 Z M 0 300.015625 " fill-opacity="1" fill-rule="evenodd"/><g clip-path="url(#c7e1e17ef5)"><path fill="#3e58c9" d="M 140.011719 90 C 178.671875 90 210.015625 121.34375 210.015625 160.003906 C 210.015625 198.667969 178.671875 230.011719 140.011719 230.011719 C 140.011719 191.347656 171.351562 160.003906 210.015625 160.003906 C 171.351562 160.003906 140.011719 128.660156 140.011719 90 Z M 140.011719 90 " fill-opacity="1" fill-rule="evenodd"/></g><path fill="#2f337a" d="M 140.011719 230.011719 C 101.347656 230.011719 70.003906 198.667969 70.003906 160.003906 C 70.003906 121.34375 101.347656 90 140.011719 90 C 140.011719 128.660156 108.667969 160.003906 70.003906 160.003906 C 108.667969 160.003906 140.011719 191.347656 140.011719 230.011719 Z M 140.011719 230.011719 " fill-opacity="1" fill-rule="evenodd"/><path fill="#ffb803" d="M 0 160.003906 L 70.003906 160.003906 C 70.003906 198.667969 38.660156 230.011719 0 230.011719 Z M 0 160.003906 " fill-opacity="1" fill-rule="evenodd"/><g clip-path="url(#1ad568d2f2)"><path fill="#43bb8d" d="M 140.011719 230.011719 C 178.671875 230.011719 210.015625 261.351562 210.015625 300.015625 L 174.855469 300.015625 C 174.855469 280.769531 159.253906 265.171875 140.011719 265.171875 C 120.765625 265.171875 105.164062 280.769531 105.164062 300.015625 L 70.003906 300.015625 C 70.003906 261.351562 101.347656 230.011719 140.011719 230.011719 Z M 140.011719 230.011719 " fill-opacity="1" fill-rule="evenodd"/></g><path fill="#ff4d39" d="M 70.003906 213.023438 C 79.386719 213.023438 86.992188 220.628906 86.992188 230.011719 C 86.992188 239.394531 79.386719 246.996094 70.003906 246.996094 C 60.621094 246.996094 53.015625 239.394531 53.015625 230.011719 C 53.015625 220.628906 60.621094 213.023438 70.003906 213.023438 Z M 70.003906 213.023438 " fill-opacity="1" fill-rule="evenodd"/><path fill="#43bb8d" d="M 140.011719 143.015625 C 149.394531 143.015625 156.996094 150.621094 156.996094 160.003906 C 156.996094 169.386719 149.394531 176.992188 140.011719 176.992188 C 130.628906 176.992188 123.023438 169.386719 123.023438 160.003906 C 123.023438 150.621094 130.628906 143.015625 140.011719 143.015625 Z M 140.011719 143.015625 " fill-opacity="1" fill-rule="evenodd"/><path fill="#43bb8d" d="M 20.425781 160.003906 C 23.34375 160.003906 26.261719 160.003906 29.179688 160.003906 C 29.179688 136.671875 29.179688 113.332031 29.179688 90 C 26.261719 90 23.34375 90 20.425781 90 C 20.425781 113.332031 20.425781 136.671875 20.425781 160.003906 Z M 0 160.003906 L 8.75 160.003906 L 8.75 90 L 0 90 Z M 61.28125 160.003906 L 70.03125 160.003906 L 70.03125 90 L 61.28125 90 Z M 40.855469 160.003906 C 43.769531 160.003906 46.691406 160.003906 49.605469 160.003906 C 49.605469 136.671875 49.605469 113.332031 49.605469 90 C 46.691406 90 43.769531 90 40.855469 90 C 40.855469 113.332031 40.855469 136.671875 40.855469 160.003906 Z M 40.855469 160.003906 " fill-opacity="1" fill-rule="evenodd"/></svg>