<svg xmlns="http://www.w3.org/2000/svg" xmlns:xlink="http://www.w3.org/1999/xlink" width="1200" zoomAndPan="magnify" viewBox="0 0 900 599.999999" height="800" preserveAspectRatio="xMidYMid meet" version="1.0"><defs><clipPath id="267b60d4f0"><path d="M 156 591 L 164.730469 591 L 164.730469 600 L 156 600 Z M 156 591 " clip-rule="nonzero"/></clipPath></defs><path fill="#059669" d="M 444.648438 357.492188 C 443.613281 358.59375 441.871094 358.648438 440.765625 357.609375 C 439.664062 356.570312 439.613281 354.828125 440.648438 353.726562 C 441.6875 352.625 443.429688 352.570312 444.53125 353.613281 C 445.636719 354.652344 445.6875 356.390625 444.648438 357.492188 Z M 439.585938 352.726562 C 437.996094 354.410156 438.074219 357.082031 439.765625 358.675781 C 441.457031 360.261719 444.121094 360.183594 445.714844 358.496094 C 447.304688 356.808594 447.222656 354.136719 445.535156 352.546875 C 443.847656 350.953125 441.175781 351.035156 439.585938 352.726562 " fill-opacity="1" fill-rule="nonzero"/><path fill="#059669" d="M 435.726562 240.613281 C 434.691406 241.714844 432.949219 241.769531 431.84375 240.730469 C 430.742188 239.691406 430.691406 237.949219 431.726562 236.847656 C 432.765625 235.742188 434.507812 235.695312 435.609375 236.730469 C 436.714844 237.769531 436.765625 239.507812 435.726562 240.613281 Z M 430.664062 235.84375 C 429.074219 237.53125 429.152344 240.199219 430.839844 241.792969 C 432.53125 243.382812 435.199219 243.304688 436.792969 241.617188 C 438.382812 239.925781 438.300781 237.257812 436.613281 235.667969 C 434.921875 234.074219 432.257812 234.15625 430.664062 235.84375 " fill-opacity="1" fill-rule="nonzero"/><path fill="#059669" d="M 358.117188 239.832031 C 357.078125 240.933594 355.335938 240.988281 354.234375 239.949219 C 353.132812 238.90625 353.082031 237.167969 354.121094 236.066406 C 355.160156 234.964844 356.902344 234.910156 358.003906 235.949219 C 359.101562 236.988281 359.15625 238.730469 358.117188 239.832031 Z M 353.054688 235.0625 C 351.464844 236.75 351.546875 239.421875 353.234375 241.011719 C 354.921875 242.605469 357.59375 242.523438 359.183594 240.835938 C 360.773438 239.144531 360.691406 236.476562 359.003906 234.882812 C 357.316406 233.296875 354.644531 233.375 353.054688 235.0625 " fill-opacity="1" fill-rule="nonzero"/><path fill="#059669" d="M 386.25 212.09375 C 385.21875 213.195312 383.476562 213.25 382.371094 212.210938 C 381.269531 211.171875 381.21875 209.429688 382.253906 208.328125 C 383.292969 207.226562 385.035156 207.171875 386.136719 208.210938 C 387.242188 209.25 387.289062 210.992188 386.25 212.09375 Z M 381.191406 207.324219 C 379.601562 209.011719 379.679688 211.683594 381.367188 213.277344 C 383.058594 214.867188 385.726562 214.785156 387.316406 213.097656 C 388.910156 211.40625 388.832031 208.738281 387.136719 207.144531 C 385.449219 205.554688 382.785156 205.636719 381.191406 207.324219 " fill-opacity="1" fill-rule="nonzero"/><path fill="#059669" d="M 362.933594 262.449219 C 361.894531 263.546875 360.152344 263.601562 359.054688 262.5625 C 357.949219 261.523438 357.898438 259.78125 358.933594 258.679688 C 359.972656 257.578125 361.714844 257.527344 362.816406 258.566406 C 363.921875 259.605469 363.96875 261.34375 362.933594 262.449219 Z M 357.871094 257.679688 C 356.28125 259.367188 356.359375 262.035156 358.050781 263.628906 C 359.738281 265.21875 362.40625 265.136719 363.996094 263.449219 C 365.585938 261.761719 365.507812 259.089844 363.820312 257.5 C 362.128906 255.90625 359.460938 255.988281 357.871094 257.679688 " fill-opacity="1" fill-rule="nonzero"/><path fill="#059669" d="M 437.90625 278.824219 C 436.863281 279.925781 435.128906 279.980469 434.023438 278.9375 C 432.921875 277.898438 432.867188 276.15625 433.90625 275.054688 C 434.945312 273.957031 436.6875 273.902344 437.789062 274.941406 C 438.890625 275.980469 438.941406 277.722656 437.90625 278.824219 Z M 432.839844 274.054688 C 431.253906 275.742188 431.332031 278.414062 433.019531 280.003906 C 434.707031 281.597656 437.378906 281.515625 438.96875 279.828125 C 440.5625 278.136719 440.480469 275.46875 438.792969 273.875 C 437.101562 272.285156 434.429688 272.367188 432.839844 274.054688 " fill-opacity="1" fill-rule="nonzero"/><path fill="#059669" d="M 386.960938 339.3125 C 385.921875 340.417969 384.179688 340.46875 383.078125 339.425781 C 381.972656 338.394531 381.921875 336.648438 382.957031 335.542969 C 383.996094 334.445312 385.738281 334.390625 386.839844 335.429688 C 387.945312 336.46875 387.992188 338.210938 386.960938 339.3125 Z M 381.894531 334.542969 C 380.304688 336.234375 380.382812 338.902344 382.074219 340.492188 C 383.761719 342.085938 386.429688 342.003906 388.019531 340.3125 C 389.613281 338.625 389.535156 335.960938 387.84375 334.367188 C 386.152344 332.777344 383.488281 332.855469 381.894531 334.542969 " fill-opacity="1" fill-rule="nonzero"/><path fill="#059669" d="M 326.839844 300.765625 C 325.800781 301.871094 324.058594 301.921875 322.957031 300.882812 C 321.855469 299.847656 321.804688 298.105469 322.839844 297 C 323.878906 295.898438 325.621094 295.847656 326.722656 296.886719 C 327.824219 297.925781 327.875 299.667969 326.839844 300.765625 Z M 321.777344 295.996094 C 320.1875 297.691406 320.265625 300.355469 321.957031 301.949219 C 323.644531 303.539062 326.3125 303.460938 327.902344 301.769531 C 329.492188 300.082031 329.414062 297.414062 327.726562 295.824219 C 326.035156 294.230469 323.367188 294.308594 321.777344 295.996094 " fill-opacity="1" fill-rule="nonzero"/><path fill="#059669" d="M 381.683594 370.503906 C 380.644531 371.609375 378.90625 371.660156 377.800781 370.617188 C 376.699219 369.582031 376.648438 367.84375 377.683594 366.738281 C 378.726562 365.636719 380.46875 365.582031 381.570312 366.621094 C 382.667969 367.660156 382.722656 369.402344 381.683594 370.503906 Z M 376.621094 365.734375 C 375.03125 367.425781 375.109375 370.09375 376.800781 371.683594 C 378.488281 373.277344 381.160156 373.199219 382.75 371.507812 C 384.339844 369.816406 384.257812 367.152344 382.570312 365.558594 C 380.882812 363.96875 378.210938 364.046875 376.621094 365.734375 " fill-opacity="1" fill-rule="nonzero"/><path fill="#059669" d="M 311.480469 340.539062 C 310.441406 341.640625 308.699219 341.695312 307.597656 340.652344 C 306.492188 339.617188 306.445312 337.875 307.480469 336.773438 C 308.515625 335.671875 310.257812 335.617188 311.359375 336.65625 C 312.464844 337.691406 312.515625 339.433594 311.480469 340.539062 Z M 306.414062 335.769531 C 304.824219 337.457031 304.902344 340.128906 306.59375 341.71875 C 308.285156 343.308594 310.949219 343.230469 312.542969 341.542969 C 314.132812 339.851562 314.054688 337.183594 312.363281 335.589844 C 310.671875 334 308.007812 334.082031 306.414062 335.769531 " fill-opacity="1" fill-rule="nonzero"/><path fill="#059669" d="M 271.84375 321.289062 C 270.804688 322.386719 269.0625 322.441406 267.960938 321.402344 C 266.859375 320.363281 266.808594 318.621094 267.84375 317.519531 C 268.882812 316.417969 270.625 316.367188 271.726562 317.40625 C 272.828125 318.441406 272.882812 320.183594 271.84375 321.289062 Z M 266.777344 316.519531 C 265.1875 318.207031 265.269531 320.875 266.957031 322.464844 C 268.648438 324.058594 271.316406 323.980469 272.910156 322.292969 C 274.5 320.597656 274.417969 317.929688 272.730469 316.339844 C 271.042969 314.75 268.371094 314.828125 266.777344 316.519531 " fill-opacity="1" fill-rule="nonzero"/><path fill="#059669" d="M 332.816406 396.792969 C 331.777344 397.898438 330.035156 397.949219 328.933594 396.914062 C 327.832031 395.875 327.78125 394.132812 328.820312 393.03125 C 329.855469 391.925781 331.597656 391.875 332.699219 392.910156 C 333.800781 393.949219 333.855469 395.691406 332.816406 396.792969 Z M 327.753906 392.027344 C 326.160156 393.714844 326.242188 396.382812 327.933594 397.972656 C 329.621094 399.566406 332.289062 399.488281 333.882812 397.796875 C 335.472656 396.105469 335.390625 393.441406 333.703125 391.847656 C 332.015625 390.257812 329.34375 390.335938 327.753906 392.027344 " fill-opacity="1" fill-rule="nonzero"/><path fill="#059669" d="M 292.53125 395.011719 C 291.492188 396.109375 289.753906 396.164062 288.648438 395.125 C 287.546875 394.085938 287.492188 392.34375 288.53125 391.242188 C 289.570312 390.140625 291.3125 390.089844 292.414062 391.128906 C 293.515625 392.167969 293.570312 393.910156 292.53125 395.011719 Z M 287.46875 390.242188 C 285.878906 391.929688 285.957031 394.597656 287.644531 396.191406 C 289.335938 397.785156 292.003906 397.703125 293.597656 396.011719 C 295.1875 394.324219 295.105469 391.65625 293.417969 390.0625 C 291.726562 388.46875 289.058594 388.550781 287.46875 390.242188 " fill-opacity="1" fill-rule="nonzero"/><path fill="#059669" d="M 283.191406 458.53125 C 282.152344 459.632812 280.414062 459.6875 279.308594 458.644531 C 278.207031 457.605469 278.15625 455.871094 279.195312 454.765625 C 280.234375 453.664062 281.976562 453.609375 283.078125 454.648438 C 284.175781 455.6875 284.230469 457.429688 283.191406 458.53125 Z M 278.128906 453.761719 C 276.539062 455.449219 276.621094 458.121094 278.308594 459.710938 C 279.996094 461.304688 282.667969 461.222656 284.257812 459.535156 C 285.847656 457.84375 285.765625 455.175781 284.078125 453.582031 C 282.390625 451.996094 279.71875 452.074219 278.128906 453.761719 " fill-opacity="1" fill-rule="nonzero"/><path fill="#059669" d="M 185.148438 474.664062 C 184.109375 475.761719 182.367188 475.816406 181.265625 474.777344 C 180.164062 473.738281 180.113281 471.996094 181.152344 470.894531 C 182.191406 469.796875 183.933594 469.742188 185.035156 470.78125 C 186.132812 471.820312 186.1875 473.5625 185.148438 474.664062 Z M 180.085938 469.894531 C 178.492188 471.582031 178.574219 474.253906 180.265625 475.84375 C 181.953125 477.433594 184.625 477.351562 186.214844 475.664062 C 187.804688 473.976562 187.722656 471.304688 186.035156 469.714844 C 184.347656 468.125 181.675781 468.207031 180.085938 469.894531 " fill-opacity="1" fill-rule="nonzero"/><path fill="#059669" d="M 138.867188 449.148438 C 137.828125 450.253906 136.085938 450.304688 134.984375 449.265625 C 133.886719 448.230469 133.832031 446.488281 134.871094 445.386719 C 135.910156 444.28125 137.648438 444.234375 138.753906 445.265625 C 139.855469 446.308594 139.910156 448.050781 138.867188 449.148438 Z M 133.804688 444.378906 C 132.214844 446.074219 132.296875 448.742188 133.984375 450.332031 C 135.671875 451.921875 138.34375 451.84375 139.933594 450.152344 C 141.523438 448.464844 141.445312 445.796875 139.757812 444.203125 C 138.066406 442.613281 135.398438 442.691406 133.804688 444.378906 " fill-opacity="1" fill-rule="nonzero"/><path fill="#059669" d="M 98.832031 429.519531 C 97.792969 430.621094 96.054688 430.675781 94.949219 429.636719 C 93.847656 428.597656 93.792969 426.855469 94.832031 425.753906 C 95.871094 424.652344 97.613281 424.601562 98.714844 425.640625 C 99.820312 426.679688 99.871094 428.417969 98.832031 429.519531 Z M 93.769531 424.75 C 92.179688 426.441406 92.257812 429.113281 93.945312 430.703125 C 95.636719 432.292969 98.304688 432.210938 99.894531 430.523438 C 101.488281 428.835938 101.40625 426.164062 99.71875 424.574219 C 98.027344 422.980469 95.363281 423.0625 93.769531 424.75 " fill-opacity="1" fill-rule="nonzero"/><path fill="#059669" d="M 262.101562 384.425781 C 261.0625 385.53125 259.320312 385.582031 258.222656 384.546875 C 257.121094 383.507812 257.066406 381.765625 258.105469 380.664062 C 259.140625 379.558594 260.882812 379.511719 261.988281 380.546875 C 263.089844 381.585938 263.140625 383.328125 262.101562 384.425781 Z M 257.039062 379.664062 C 255.449219 381.351562 255.53125 384.015625 257.21875 385.609375 C 258.90625 387.199219 261.578125 387.121094 263.167969 385.429688 C 264.757812 383.742188 264.679688 381.074219 262.992188 379.484375 C 261.296875 377.890625 258.628906 377.96875 257.039062 379.664062 " fill-opacity="1" fill-rule="nonzero"/><path fill="#059669" d="M 291.398438 430.105469 C 290.363281 431.207031 288.621094 431.257812 287.519531 430.21875 C 286.417969 429.179688 286.363281 427.4375 287.402344 426.335938 C 288.441406 425.234375 290.183594 425.183594 291.285156 426.222656 C 292.386719 427.261719 292.4375 429 291.398438 430.105469 Z M 286.335938 425.335938 C 284.746094 427.023438 284.828125 429.695312 286.515625 431.285156 C 288.203125 432.875 290.875 432.796875 292.464844 431.105469 C 294.058594 429.417969 293.976562 426.75 292.285156 425.15625 C 290.597656 423.5625 287.925781 423.644531 286.335938 425.335938 " fill-opacity="1" fill-rule="nonzero"/><path fill="#059669" d="M 175.835938 375.492188 C 174.796875 376.59375 173.054688 376.648438 171.953125 375.609375 C 170.851562 374.570312 170.796875 372.828125 171.835938 371.726562 C 172.871094 370.621094 174.613281 370.574219 175.71875 371.613281 C 176.820312 372.648438 176.875 374.390625 175.835938 375.492188 Z M 170.769531 370.726562 C 169.179688 372.414062 169.261719 375.078125 170.949219 376.671875 C 172.636719 378.261719 175.308594 378.183594 176.898438 376.496094 C 178.488281 374.804688 178.410156 372.136719 176.722656 370.546875 C 175.027344 368.953125 172.363281 369.03125 170.769531 370.726562 " fill-opacity="1" fill-rule="nonzero"/><path fill="#059669" d="M 240.921875 454.875 C 239.882812 455.980469 238.144531 456.03125 237.039062 454.992188 C 235.9375 453.953125 235.882812 452.210938 236.921875 451.109375 C 237.960938 450.007812 239.703125 449.957031 240.804688 450.992188 C 241.90625 452.03125 241.960938 453.773438 240.921875 454.875 Z M 235.855469 450.109375 C 234.265625 451.796875 234.347656 454.464844 236.035156 456.054688 C 237.726562 457.648438 240.398438 457.570312 241.988281 455.882812 C 243.578125 454.1875 243.496094 451.523438 241.808594 449.929688 C 240.121094 448.339844 237.449219 448.417969 235.855469 450.109375 " fill-opacity="1" fill-rule="nonzero"/><path fill="#059669" d="M 189.929688 81.421875 C 188.890625 82.519531 187.148438 82.574219 186.046875 81.535156 C 184.949219 80.496094 184.894531 78.753906 185.933594 77.652344 C 186.96875 76.554688 188.710938 76.5 189.816406 77.539062 C 190.917969 78.578125 190.96875 80.316406 189.929688 81.421875 Z M 184.867188 76.652344 C 183.277344 78.339844 183.359375 81.011719 185.046875 82.601562 C 186.734375 84.191406 189.40625 84.109375 190.992188 82.421875 C 192.585938 80.734375 192.507812 78.0625 190.816406 76.472656 C 189.125 74.882812 186.457031 74.960938 184.867188 76.652344 " fill-opacity="1" fill-rule="nonzero"/><path fill="#059669" d="M 229.414062 190.925781 C 228.375 192.03125 226.636719 192.082031 225.53125 191.042969 C 224.429688 190.003906 224.378906 188.265625 225.414062 187.160156 C 226.453125 186.058594 228.195312 186.003906 229.296875 187.042969 C 230.398438 188.082031 230.453125 189.824219 229.414062 190.925781 Z M 224.347656 186.15625 C 222.761719 187.847656 222.839844 190.515625 224.53125 192.105469 C 226.21875 193.699219 228.886719 193.617188 230.480469 191.929688 C 232.070312 190.238281 231.988281 187.574219 230.300781 185.980469 C 228.613281 184.390625 225.941406 184.46875 224.347656 186.15625 " fill-opacity="1" fill-rule="nonzero"/><path fill="#059669" d="M 166.707031 204.183594 C 165.671875 205.28125 163.929688 205.335938 162.824219 204.296875 C 161.722656 203.257812 161.671875 201.519531 162.710938 200.414062 C 163.746094 199.316406 165.492188 199.261719 166.589844 200.300781 C 167.691406 201.339844 167.746094 203.082031 166.707031 204.183594 Z M 161.648438 199.414062 C 160.054688 201.101562 160.132812 203.773438 161.824219 205.363281 C 163.515625 206.957031 166.183594 206.875 167.773438 205.183594 C 169.363281 203.496094 169.28125 200.824219 167.59375 199.234375 C 165.90625 197.644531 163.234375 197.726562 161.648438 199.414062 " fill-opacity="1" fill-rule="nonzero"/><path fill="#059669" d="M 89.097656 203.402344 C 88.058594 204.503906 86.320312 204.554688 85.21875 203.519531 C 84.117188 202.480469 84.0625 200.738281 85.101562 199.636719 C 86.140625 198.535156 87.882812 198.484375 88.984375 199.519531 C 90.085938 200.558594 90.136719 202.300781 89.097656 203.402344 Z M 84.035156 198.636719 C 82.445312 200.324219 82.527344 202.992188 84.214844 204.582031 C 85.902344 206.171875 88.574219 206.09375 90.164062 204.402344 C 91.757812 202.714844 91.675781 200.046875 89.984375 198.457031 C 88.296875 196.863281 85.625 196.941406 84.035156 198.636719 " fill-opacity="1" fill-rule="nonzero"/><path fill="#059669" d="M 41.394531 303.105469 C 40.355469 304.207031 38.613281 304.257812 37.511719 303.21875 C 36.414062 302.179688 36.359375 300.441406 37.398438 299.339844 C 38.433594 298.238281 40.175781 298.183594 41.28125 299.222656 C 42.382812 300.261719 42.433594 302.003906 41.394531 303.105469 Z M 36.332031 298.335938 C 34.738281 300.023438 34.820312 302.695312 36.511719 304.285156 C 38.199219 305.878906 40.871094 305.796875 42.457031 304.105469 C 44.046875 302.417969 43.972656 299.75 42.28125 298.15625 C 40.589844 296.566406 37.921875 296.648438 36.332031 298.335938 " fill-opacity="1" fill-rule="nonzero"/><path fill="#059669" d="M 31.714844 221.667969 C 30.675781 222.773438 28.9375 222.824219 27.832031 221.789062 C 26.734375 220.75 26.679688 219.007812 27.71875 217.90625 C 28.757812 216.800781 30.5 216.753906 31.601562 217.789062 C 32.703125 218.828125 32.753906 220.570312 31.714844 221.667969 Z M 26.652344 216.90625 C 25.058594 218.59375 25.140625 221.257812 26.832031 222.851562 C 28.519531 224.441406 31.191406 224.363281 32.78125 222.671875 C 34.371094 220.984375 34.289062 218.316406 32.601562 216.726562 C 30.914062 215.132812 28.242188 215.210938 26.652344 216.90625 " fill-opacity="1" fill-rule="nonzero"/><path fill="#059669" d="M 169.277344 532.035156 C 168.242188 533.132812 166.5 533.191406 165.394531 532.148438 C 164.296875 531.109375 164.242188 529.367188 165.28125 528.265625 C 166.320312 527.164062 168.0625 527.113281 169.164062 528.152344 C 170.269531 529.191406 170.316406 530.933594 169.277344 532.035156 Z M 164.21875 527.265625 C 162.625 528.953125 162.703125 531.625 164.394531 533.214844 C 166.085938 534.808594 168.753906 534.726562 170.34375 533.035156 C 171.9375 531.347656 171.859375 528.675781 170.167969 527.085938 C 168.476562 525.492188 165.808594 525.574219 164.21875 527.265625 " fill-opacity="1" fill-rule="nonzero"/><path fill="#059669" d="M 134.96875 517.796875 C 133.929688 518.894531 132.1875 518.949219 131.085938 517.910156 C 129.984375 516.871094 129.929688 515.128906 130.96875 514.027344 C 132.007812 512.925781 133.75 512.875 134.851562 513.914062 C 135.953125 514.953125 136.007812 516.695312 134.96875 517.796875 Z M 129.90625 513.027344 C 128.3125 514.714844 128.394531 517.386719 130.082031 518.976562 C 131.769531 520.570312 134.441406 520.488281 136.035156 518.796875 C 137.625 517.109375 137.542969 514.4375 135.855469 512.847656 C 134.167969 511.253906 131.496094 511.335938 129.90625 513.027344 " fill-opacity="1" fill-rule="nonzero"/><path fill="#059669" d="M 70.332031 474.996094 C 69.292969 476.097656 67.550781 476.152344 66.453125 475.113281 C 65.347656 474.074219 65.296875 472.332031 66.332031 471.230469 C 67.371094 470.125 69.113281 470.078125 70.214844 471.113281 C 71.320312 472.148438 71.371094 473.890625 70.332031 474.996094 Z M 65.269531 470.230469 C 63.679688 471.917969 63.757812 474.582031 65.449219 476.175781 C 67.136719 477.765625 69.804688 477.6875 71.394531 476 C 72.988281 474.308594 72.910156 471.640625 71.21875 470.046875 C 69.527344 468.457031 66.863281 468.535156 65.269531 470.230469 " fill-opacity="1" fill-rule="nonzero"/><g clip-path="url(#267b60d4f0)"><path fill="#059669" d="M 162.234375 597.714844 C 161.195312 598.816406 159.453125 598.871094 158.347656 597.828125 C 157.25 596.792969 157.195312 595.054688 158.234375 593.949219 C 159.273438 592.847656 161.015625 592.792969 162.117188 593.832031 C 163.222656 594.871094 163.273438 596.613281 162.234375 597.714844 Z M 157.171875 592.945312 C 155.582031 594.636719 155.660156 597.304688 157.347656 598.894531 C 159.039062 600.488281 161.707031 600.40625 163.296875 598.714844 C 164.890625 597.027344 164.8125 594.359375 163.121094 592.769531 C 161.429688 591.175781 158.765625 591.253906 157.171875 592.945312 " fill-opacity="1" fill-rule="nonzero"/></g><path fill="#059669" d="M 101.40625 558.503906 C 100.371094 559.605469 98.625 559.65625 97.523438 558.617188 C 96.421875 557.578125 96.371094 555.835938 97.40625 554.734375 C 98.445312 553.632812 100.1875 553.578125 101.289062 554.617188 C 102.394531 555.660156 102.441406 557.398438 101.40625 558.503906 Z M 96.34375 553.730469 C 94.75 555.421875 94.832031 558.09375 96.519531 559.683594 C 98.210938 561.273438 100.878906 561.191406 102.46875 559.503906 C 104.0625 557.816406 103.984375 555.144531 102.292969 553.554688 C 100.601562 551.960938 97.9375 552.042969 96.34375 553.730469 " fill-opacity="1" fill-rule="nonzero"/><path fill="#059669" d="M 22.527344 502.289062 C 21.488281 503.390625 19.746094 503.445312 18.648438 502.40625 C 17.546875 501.367188 17.492188 499.625 18.53125 498.523438 C 19.570312 497.421875 21.3125 497.367188 22.414062 498.40625 C 23.515625 499.445312 23.570312 501.183594 22.527344 502.289062 Z M 17.464844 497.519531 C 15.875 499.207031 15.957031 501.878906 17.644531 503.472656 C 19.332031 505.058594 22.003906 504.980469 23.59375 503.292969 C 25.1875 501.601562 25.105469 498.933594 23.417969 497.339844 C 21.726562 495.75 19.058594 495.832031 17.464844 497.519531 " fill-opacity="1" fill-rule="nonzero"/><path fill="#059669" d="M 24.394531 540.203125 C 23.355469 541.304688 21.613281 541.355469 20.511719 540.316406 C 19.410156 539.28125 19.355469 537.539062 20.394531 536.4375 C 21.433594 535.335938 23.175781 535.28125 24.277344 536.320312 C 25.378906 537.359375 25.433594 539.101562 24.394531 540.203125 Z M 19.328125 535.433594 C 17.738281 537.121094 17.820312 539.792969 19.507812 541.386719 C 21.195312 542.976562 23.867188 542.894531 25.460938 541.207031 C 27.050781 539.515625 26.96875 536.847656 25.28125 535.253906 C 23.59375 533.664062 20.921875 533.742188 19.328125 535.433594 " fill-opacity="1" fill-rule="nonzero"/><path fill="#059669" d="M 575.058594 9.503906 C 574.019531 10.605469 572.277344 10.660156 571.175781 9.621094 C 570.074219 8.582031 570.019531 6.839844 571.058594 5.738281 C 572.097656 4.636719 573.839844 4.585938 574.941406 5.625 C 576.046875 6.664062 576.09375 8.40625 575.058594 9.503906 Z M 569.996094 4.734375 C 568.40625 6.425781 568.484375 9.097656 570.171875 10.6875 C 571.863281 12.277344 574.53125 12.195312 576.121094 10.507812 C 577.714844 8.820312 577.632812 6.148438 575.945312 4.558594 C 574.253906 2.964844 571.585938 3.046875 569.996094 4.734375 " fill-opacity="1" fill-rule="nonzero"/><path fill="#059669" d="M 579.875 32.121094 C 578.835938 33.222656 577.09375 33.277344 575.992188 32.234375 C 574.890625 31.199219 574.835938 29.457031 575.875 28.355469 C 576.914062 27.25 578.652344 27.199219 579.757812 28.238281 C 580.859375 29.273438 580.910156 31.015625 579.875 32.121094 Z M 574.808594 27.351562 C 573.21875 29.039062 573.300781 31.707031 574.988281 33.296875 C 576.675781 34.890625 579.347656 34.8125 580.941406 33.125 C 582.527344 31.429688 582.449219 28.765625 580.761719 27.171875 C 579.070312 25.582031 576.402344 25.664062 574.808594 27.351562 " fill-opacity="1" fill-rule="nonzero"/><path fill="#059669" d="M 603.898438 108.984375 C 602.859375 110.085938 601.117188 110.140625 600.015625 109.101562 C 598.914062 108.0625 598.863281 106.324219 599.898438 105.21875 C 600.9375 104.117188 602.679688 104.066406 603.78125 105.105469 C 604.882812 106.144531 604.9375 107.886719 603.898438 108.984375 Z M 598.832031 104.21875 C 597.242188 105.90625 597.324219 108.574219 599.011719 110.167969 C 600.703125 111.757812 603.371094 111.675781 604.960938 109.988281 C 606.550781 108.300781 606.472656 105.628906 604.785156 104.039062 C 603.09375 102.449219 600.425781 102.527344 598.832031 104.21875 " fill-opacity="1" fill-rule="nonzero"/><path fill="#059669" d="M 543.78125 70.441406 C 542.738281 71.539062 540.996094 71.59375 539.898438 70.554688 C 538.796875 69.519531 538.742188 67.777344 539.78125 66.671875 C 540.820312 65.574219 542.558594 65.519531 543.664062 66.558594 C 544.765625 67.597656 544.816406 69.339844 543.78125 70.441406 Z M 538.714844 65.671875 C 537.125 67.363281 537.207031 70.03125 538.894531 71.621094 C 540.582031 73.214844 543.253906 73.128906 544.84375 71.445312 C 546.433594 69.753906 546.355469 67.082031 544.667969 65.496094 C 542.976562 63.90625 540.304688 63.984375 538.714844 65.671875 " fill-opacity="1" fill-rule="nonzero"/><path fill="#059669" d="M 598.625 140.175781 C 597.585938 141.277344 595.84375 141.332031 594.742188 140.292969 C 593.640625 139.257812 593.589844 137.515625 594.625 136.410156 C 595.664062 135.308594 597.40625 135.257812 598.507812 136.296875 C 599.613281 137.335938 599.660156 139.078125 598.625 140.175781 Z M 593.5625 135.410156 C 591.972656 137.101562 592.050781 139.765625 593.738281 141.359375 C 595.429688 142.949219 598.097656 142.867188 599.6875 141.179688 C 601.277344 139.492188 601.199219 136.820312 599.511719 135.234375 C 597.820312 133.640625 595.152344 133.71875 593.5625 135.410156 " fill-opacity="1" fill-rule="nonzero"/><path fill="#059669" d="M 528.417969 110.210938 C 527.378906 111.3125 525.636719 111.363281 524.535156 110.328125 C 523.429688 109.289062 523.382812 107.546875 524.421875 106.445312 C 525.457031 105.339844 527.199219 105.292969 528.300781 106.332031 C 529.402344 107.367188 529.457031 109.109375 528.417969 110.210938 Z M 523.355469 105.445312 C 521.761719 107.132812 521.84375 109.796875 523.535156 111.390625 C 525.222656 112.980469 527.890625 112.902344 529.480469 111.214844 C 531.074219 109.523438 530.996094 106.855469 529.304688 105.265625 C 527.613281 103.671875 524.945312 103.75 523.355469 105.445312 " fill-opacity="1" fill-rule="nonzero"/><path fill="#059669" d="M 488.78125 90.957031 C 487.746094 92.0625 486.003906 92.113281 484.898438 91.078125 C 483.796875 90.039062 483.746094 88.296875 484.785156 87.195312 C 485.824219 86.089844 487.566406 86.039062 488.664062 87.074219 C 489.769531 88.117188 489.820312 89.859375 488.78125 90.957031 Z M 483.722656 86.191406 C 482.128906 87.878906 482.210938 90.546875 483.898438 92.140625 C 485.589844 93.730469 488.257812 93.652344 489.847656 91.960938 C 491.441406 90.273438 491.359375 87.605469 489.667969 86.011719 C 487.980469 84.421875 485.3125 84.5 483.722656 86.191406 " fill-opacity="1" fill-rule="nonzero"/><path fill="#059669" d="M 549.753906 166.46875 C 548.722656 167.570312 546.980469 167.621094 545.871094 166.582031 C 544.773438 165.546875 544.71875 163.804688 545.757812 162.699219 C 546.796875 161.597656 548.539062 161.546875 549.640625 162.585938 C 550.746094 163.625 550.792969 165.367188 549.753906 166.46875 Z M 544.695312 161.699219 C 543.101562 163.390625 543.179688 166.054688 544.871094 167.648438 C 546.5625 169.238281 549.230469 169.160156 550.820312 167.46875 C 552.414062 165.78125 552.332031 163.113281 550.640625 161.523438 C 548.953125 159.929688 546.285156 160.007812 544.695312 161.699219 " fill-opacity="1" fill-rule="nonzero"/><path fill="#059669" d="M 509.472656 164.683594 C 508.433594 165.785156 506.691406 165.839844 505.589844 164.800781 C 504.484375 163.761719 504.4375 162.019531 505.46875 160.917969 C 506.507812 159.816406 508.253906 159.761719 509.351562 160.800781 C 510.457031 161.835938 510.507812 163.578125 509.472656 164.683594 Z M 504.410156 159.914062 C 502.816406 161.601562 502.894531 164.273438 504.589844 165.859375 C 506.277344 167.453125 508.945312 167.375 510.535156 165.6875 C 512.128906 163.996094 512.050781 161.328125 510.355469 159.734375 C 508.667969 158.144531 506 158.226562 504.410156 159.914062 " fill-opacity="1" fill-rule="nonzero"/><path fill="#059669" d="M 500.132812 228.203125 C 499.09375 229.304688 497.351562 229.359375 496.25 228.320312 C 495.148438 227.28125 495.097656 225.539062 496.132812 224.4375 C 497.171875 223.335938 498.914062 223.285156 500.015625 224.320312 C 501.121094 225.363281 501.167969 227.105469 500.132812 228.203125 Z M 495.070312 223.4375 C 493.480469 225.125 493.558594 227.792969 495.246094 229.386719 C 496.9375 230.976562 499.605469 230.894531 501.195312 229.207031 C 502.789062 227.519531 502.710938 224.847656 501.019531 223.257812 C 499.328125 221.664062 496.660156 221.746094 495.070312 223.4375 " fill-opacity="1" fill-rule="nonzero"/><path fill="#059669" d="M 479.042969 154.101562 C 478.003906 155.207031 476.261719 155.257812 475.160156 154.214844 C 474.058594 153.179688 474.003906 151.4375 475.042969 150.335938 C 476.082031 149.234375 477.824219 149.179688 478.925781 150.21875 C 480.027344 151.257812 480.078125 153 479.042969 154.101562 Z M 473.976562 149.332031 C 472.386719 151.023438 472.46875 153.691406 474.15625 155.28125 C 475.84375 156.875 478.515625 156.796875 480.105469 155.101562 C 481.699219 153.414062 481.617188 150.75 479.929688 149.15625 C 478.238281 147.566406 475.570312 147.644531 473.976562 149.332031 " fill-opacity="1" fill-rule="nonzero"/><path fill="#059669" d="M 508.339844 199.777344 C 507.304688 200.878906 505.5625 200.933594 504.457031 199.894531 C 503.355469 198.855469 503.300781 197.113281 504.339844 196.011719 C 505.378906 194.90625 507.121094 194.855469 508.222656 195.894531 C 509.328125 196.929688 509.378906 198.671875 508.339844 199.777344 Z M 503.277344 195.007812 C 501.6875 196.695312 501.765625 199.363281 503.453125 200.953125 C 505.144531 202.546875 507.8125 202.46875 509.402344 200.78125 C 510.996094 199.085938 510.914062 196.421875 509.226562 194.828125 C 507.535156 193.238281 504.871094 193.320312 503.277344 195.007812 " fill-opacity="1" fill-rule="nonzero"/><path fill="#059669" d="M 392.773438 145.164062 C 391.734375 146.269531 389.992188 146.320312 388.890625 145.28125 C 387.789062 144.242188 387.738281 142.5 388.777344 141.402344 C 389.8125 140.296875 391.554688 140.246094 392.65625 141.28125 C 393.761719 142.320312 393.8125 144.0625 392.773438 145.164062 Z M 387.710938 140.398438 C 386.117188 142.085938 386.199219 144.753906 387.890625 146.34375 C 389.578125 147.9375 392.246094 147.859375 393.839844 146.167969 C 395.429688 144.476562 395.347656 141.8125 393.660156 140.21875 C 391.972656 138.628906 389.300781 138.707031 387.710938 140.398438 " fill-opacity="1" fill-rule="nonzero"/><path fill="#059669" d="M 457.859375 224.546875 C 456.824219 225.652344 455.082031 225.703125 453.976562 224.667969 C 452.878906 223.628906 452.824219 221.886719 453.863281 220.785156 C 454.902344 219.679688 456.644531 219.632812 457.746094 220.664062 C 458.847656 221.707031 458.898438 223.449219 457.859375 224.546875 Z M 452.800781 219.78125 C 451.207031 221.46875 451.285156 224.136719 452.976562 225.730469 C 454.667969 227.320312 457.335938 227.242188 458.925781 225.550781 C 460.515625 223.863281 460.4375 221.195312 458.746094 219.605469 C 457.058594 218.011719 454.390625 218.089844 452.800781 219.78125 " fill-opacity="1" fill-rule="nonzero"/><path fill="#059669" d="M 258.332031 72.777344 C 257.296875 73.878906 255.554688 73.933594 254.453125 72.894531 C 253.351562 71.855469 253.296875 70.113281 254.335938 69.011719 C 255.375 67.910156 257.117188 67.855469 258.21875 68.894531 C 259.320312 69.9375 259.371094 71.675781 258.332031 72.777344 Z M 253.269531 68.007812 C 251.679688 69.699219 251.761719 72.367188 253.449219 73.960938 C 255.136719 75.550781 257.808594 75.46875 259.398438 73.78125 C 260.992188 72.09375 260.910156 69.421875 259.222656 67.832031 C 257.53125 66.238281 254.859375 66.320312 253.269531 68.007812 " fill-opacity="1" fill-rule="nonzero"/><path fill="#059669" d="M 316.753906 129.558594 L 430.691406 236.878906 L 431.695312 235.8125 L 317.308594 128.070312 L 298.972656 128.878906 L 162.132812 -0.00390625 L 160 -0.00390625 L 298.414062 130.367188 L 316.753906 129.558594 " fill-opacity="1" fill-rule="nonzero"/><path fill="#059669" d="M 239.148438 128.777344 L 353.085938 236.097656 L 354.089844 235.03125 L 239.699219 127.292969 L 221.359375 128.097656 L 85.351562 -0.00390625 L 83.222656 -0.00390625 L 220.808594 129.585938 L 239.148438 128.777344 " fill-opacity="1" fill-rule="nonzero"/><path fill="#059669" d="M 339.949219 170.203125 L 381.234375 208.792969 L 382.226562 207.421875 L 340.496094 168.238281 L 321.894531 168.796875 L 142.652344 -0.00390625 L 140.207031 -0.00390625 L 321.34375 170.757812 L 339.949219 170.203125 " fill-opacity="1" fill-rule="nonzero"/><path fill="#059669" d="M 316.628906 220.574219 L 357.917969 259.160156 L 358.910156 257.78125 L 317.175781 218.613281 L 298.570312 219.167969 L 65.847656 -0.00390625 L 63.449219 -0.00390625 L 298.023438 221.132812 L 316.628906 220.574219 " fill-opacity="1" fill-rule="nonzero"/><path fill="#059669" d="M 370.027344 215.898438 L 432.871094 275.089844 L 433.875 274.023438 L 370.578125 214.40625 L 352.242188 215.214844 L 123.742188 -0.00390625 L 121.609375 -0.00390625 L 351.691406 216.703125 L 370.027344 215.898438 " fill-opacity="1" fill-rule="nonzero"/><path fill="#059669" d="M 376.511719 294.320312 L 439.359375 353.511719 L 440.359375 352.449219 L 377.066406 292.832031 L 358.730469 293.640625 L 46.960938 -0.00390625 L 44.832031 -0.00390625 L 358.175781 295.125 L 376.511719 294.320312 " fill-opacity="1" fill-rule="nonzero"/><path fill="#059669" d="M 267.984375 228.261719 L 381.929688 335.578125 L 382.929688 334.515625 L 268.539062 226.773438 L 250.199219 227.578125 L 8.574219 -0.00390625 L 6.441406 -0.00390625 L 249.648438 229.066406 L 267.984375 228.261719 " fill-opacity="1" fill-rule="nonzero"/><path fill="#059669" d="M 280.5 257.695312 L 321.800781 296.824219 L 322.8125 295.988281 L 281.078125 256.703125 L 262.46875 257.257812 L 0.199219 10.152344 L 0.199219 11.894531 L 261.894531 258.25 L 280.5 257.695312 " fill-opacity="1" fill-rule="nonzero"/><path fill="#059669" d="M 319.128906 312.589844 L 376.652344 366.769531 L 377.65625 365.707031 L 319.679688 311.101562 L 301.34375 311.910156 L 0.199219 28.265625 L 0.199219 30.277344 L 300.792969 313.394531 L 319.128906 312.589844 " fill-opacity="1" fill-rule="nonzero"/><path fill="#059669" d="M 222.3125 257.558594 L 306.449219 336.804688 L 307.449219 335.738281 L 222.863281 256.070312 L 204.523438 256.878906 L 0.199219 64.429688 L 0.199219 66.4375 L 203.972656 258.363281 L 222.3125 257.558594 " fill-opacity="1" fill-rule="nonzero"/><path fill="#059669" d="M 234.835938 287.308594 L 266.546875 317.089844 L 267.546875 315.9375 L 235.382812 285.34375 L 216.777344 285.898438 L 0.199219 82.042969 L 0.199219 84.421875 L 216.230469 287.863281 L 234.835938 287.308594 " fill-opacity="1" fill-rule="nonzero"/><path fill="#059669" d="M 273.457031 341.886719 L 327.785156 393.058594 L 328.789062 391.996094 L 274.007812 340.402344 L 255.671875 341.207031 L 0.199219 100.585938 L 0.199219 102.59375 L 255.117188 342.699219 L 273.457031 341.886719 " fill-opacity="1" fill-rule="nonzero"/><path fill="#059669" d="M 187.28125 296.878906 L 287.382812 391.167969 L 288.386719 390.101562 L 187.832031 295.394531 L 169.496094 296.199219 L 0.199219 136.746094 L 0.199219 138.753906 L 168.945312 297.691406 L 187.28125 296.878906 " fill-opacity="1" fill-rule="nonzero"/><path fill="#059669" d="M 123.511719 309.132812 L 277.902344 454.554688 L 278.902344 453.488281 L 124.0625 307.644531 L 105.722656 308.457031 L 0.199219 209.0625 L 0.199219 211.070312 L 105.171875 309.941406 L 123.511719 309.132812 " fill-opacity="1" fill-rule="nonzero"/><path fill="#059669" d="M 84.886719 381.234375 L 180.117188 470.929688 L 181.121094 469.863281 L 86.339844 380.59375 L 86.046875 362.238281 L 0.199219 281.378906 L 0.199219 283.390625 L 84.59375 362.878906 L 84.886719 381.234375 " fill-opacity="1" fill-rule="nonzero"/><path fill="#059669" d="M 50.316406 366.75 L 133.835938 445.414062 L 134.839844 444.351562 L 51.769531 366.109375 L 51.480469 347.753906 L 0.199219 299.457031 L 0.199219 301.464844 L 50.027344 348.394531 L 50.316406 366.75 " fill-opacity="1" fill-rule="nonzero"/><path fill="#059669" d="M 94.945312 424.855469 L 0.199219 335.617188 L 0.199219 337.628906 L 93.941406 425.921875 L 94.945312 424.855469 " fill-opacity="1" fill-rule="nonzero"/><path fill="#059669" d="M 199.796875 326.339844 L 257.058594 380.257812 L 258.058594 379.175781 L 200.339844 324.375 L 181.742188 324.933594 L 0.199219 154.085938 L 0.199219 156.511719 L 181.195312 326.898438 L 199.796875 326.339844 " fill-opacity="1" fill-rule="nonzero"/><path fill="#059669" d="M 238.425781 381.210938 L 286.367188 426.367188 L 287.371094 425.300781 L 238.980469 379.722656 L 220.640625 380.53125 L 0.199219 172.90625 L 0.199219 174.914062 L 220.085938 382.019531 L 238.425781 381.210938 " fill-opacity="1" fill-rule="nonzero"/><path fill="#059669" d="M 139.253906 342.761719 L 170.960938 372.328125 L 171.953125 370.957031 L 139.800781 340.800781 L 121.199219 341.355469 L 0.199219 227.40625 L 0.199219 229.765625 L 120.652344 343.316406 L 139.253906 342.761719 " fill-opacity="1" fill-rule="nonzero"/><path fill="#059669" d="M 172.527344 391.460938 L 235.371094 450.652344 L 236.375 449.589844 L 173.078125 389.972656 L 154.742188 390.777344 L 0.199219 245.222656 L 0.199219 247.230469 L 154.1875 392.269531 L 172.527344 391.460938 " fill-opacity="1" fill-rule="nonzero"/><path fill="#059669" d="M 185.902344 76.621094 L 104.550781 -0.00390625 L 102.414062 -0.00390625 L 184.898438 77.6875 L 185.902344 76.621094 " fill-opacity="1" fill-rule="nonzero"/><path fill="#059669" d="M 225.382812 186.128906 L 27.769531 -0.00390625 L 25.632812 -0.00390625 L 224.382812 187.191406 L 225.382812 186.128906 " fill-opacity="1" fill-rule="nonzero"/><path fill="#059669" d="M 162.679688 199.382812 L 0.199219 46.347656 L 0.199219 48.359375 L 161.675781 200.449219 L 162.679688 199.382812 " fill-opacity="1" fill-rule="nonzero"/><path fill="#059669" d="M 85.070312 198.601562 L 0.199219 118.667969 L 0.199219 120.675781 L 84.066406 199.664062 L 85.070312 198.601562 " fill-opacity="1" fill-rule="nonzero"/><path fill="#059669" d="M 37.367188 298.304688 L 0.199219 263.300781 L 0.199219 265.308594 L 36.363281 299.371094 L 37.367188 298.304688 " fill-opacity="1" fill-rule="nonzero"/><path fill="#059669" d="M 27.683594 216.871094 L 0.199219 190.984375 L 0.199219 192.992188 L 26.683594 217.933594 L 27.683594 216.871094 " fill-opacity="1" fill-rule="nonzero"/><path fill="#059669" d="M 49.859375 420.554688 L 164.246094 528.296875 L 165.25 527.234375 L 51.308594 419.917969 L 51.019531 401.5625 L 0.199219 353.699219 L 0.199219 355.707031 L 49.566406 402.203125 L 49.859375 420.554688 " fill-opacity="1" fill-rule="nonzero"/><path fill="#059669" d="M 15.285156 406.074219 L 129.675781 513.816406 L 130.679688 512.753906 L 16.738281 405.429688 L 16.445312 387.082031 L 0.199219 371.777344 L 0.199219 373.785156 L 14.992188 387.722656 L 15.285156 406.074219 " fill-opacity="1" fill-rule="nonzero"/><path fill="#059669" d="M 66.304688 470.195312 L 0.199219 407.933594 L 0.199219 409.945312 L 65.300781 471.261719 L 66.304688 470.195312 " fill-opacity="1" fill-rule="nonzero"/><path fill="#059669" d="M 42.503906 485.945312 L 156.894531 593.6875 L 157.898438 592.625 L 43.957031 485.308594 L 43.667969 466.953125 L 0.199219 426.015625 L 0.199219 428.023438 L 42.214844 467.59375 L 42.503906 485.945312 " fill-opacity="1" fill-rule="nonzero"/><path fill="#059669" d="M 97.78125 554.082031 L 0.199219 462.175781 L 0.199219 464.183594 L 96.777344 555.144531 L 97.78125 554.082031 " fill-opacity="1" fill-rule="nonzero"/><path fill="#059669" d="M 18.5 497.488281 L 0.199219 480.253906 L 0.199219 482.261719 L 17.496094 498.554688 L 18.5 497.488281 " fill-opacity="1" fill-rule="nonzero"/><path fill="#059669" d="M 20.679688 535.699219 L 0.199219 516.414062 L 0.199219 518.421875 L 19.675781 536.765625 L 20.679688 535.699219 " fill-opacity="1" fill-rule="nonzero"/><path fill="#059669" d="M 571.027344 4.703125 L 566.027344 -0.00390625 L 563.894531 -0.00390625 L 570.023438 5.769531 L 571.027344 4.703125 " fill-opacity="1" fill-rule="nonzero"/><path fill="#059669" d="M 575.859375 27.851562 L 545.890625 -0.00390625 L 544.113281 -0.00390625 L 574.859375 28.9375 L 575.859375 27.851562 " fill-opacity="1" fill-rule="nonzero"/><path fill="#059669" d="M 594.007812 62.503906 L 575.667969 63.3125 L 508.445312 -0.00390625 L 506.3125 -0.00390625 L 575.113281 64.800781 L 593.449219 63.992188 L 608.671875 78.324219 L 608.671875 76.316406 L 594.007812 62.503906 " fill-opacity="1" fill-rule="nonzero"/><path fill="#059669" d="M 599.867188 104.183594 L 489.246094 -0.00390625 L 487.117188 -0.00390625 L 598.867188 105.25 L 599.867188 104.183594 " fill-opacity="1" fill-rule="nonzero"/><path fill="#059669" d="M 497.460938 28.15625 L 538.75 66.84375 L 539.746094 65.570312 L 498.007812 26.191406 L 479.40625 26.75 L 450.988281 -0.00390625 L 448.378906 -0.00390625 L 478.855469 28.710938 L 497.460938 28.15625 " fill-opacity="1" fill-rule="nonzero"/><path fill="#059669" d="M 536.070312 82.261719 L 593.59375 136.441406 L 594.597656 135.378906 L 536.621094 80.773438 L 518.28125 81.585938 L 431.664062 -0.00390625 L 429.53125 -0.00390625 L 517.730469 83.070312 L 536.070312 82.261719 " fill-opacity="1" fill-rule="nonzero"/><path fill="#059669" d="M 439.25 27.230469 L 523.386719 106.476562 L 524.390625 105.410156 L 439.804688 25.742188 L 421.46875 26.546875 L 393.273438 -0.00390625 L 391.140625 -0.00390625 L 420.910156 28.039062 L 439.25 27.230469 " fill-opacity="1" fill-rule="nonzero"/><path fill="#059669" d="M 451.769531 56.796875 L 483.488281 86.867188 L 484.496094 86.003906 L 452.347656 55.804688 L 433.738281 56.363281 L 373.917969 -0.00390625 L 372.246094 -0.00390625 L 433.164062 57.351562 L 451.769531 56.796875 " fill-opacity="1" fill-rule="nonzero"/><path fill="#059669" d="M 490.394531 111.5625 L 544.722656 162.730469 L 545.726562 161.667969 L 490.945312 110.070312 L 472.609375 110.878906 L 354.882812 -0.00390625 L 352.75 -0.00390625 L 472.058594 112.371094 L 490.394531 111.5625 " fill-opacity="1" fill-rule="nonzero"/><path fill="#059669" d="M 404.222656 66.554688 L 504.320312 160.835938 L 505.324219 159.773438 L 404.773438 65.066406 L 386.433594 65.875 L 316.496094 -0.00390625 L 314.359375 -0.00390625 L 385.882812 67.363281 L 404.222656 66.554688 " fill-opacity="1" fill-rule="nonzero"/><path fill="#059669" d="M 340.449219 78.808594 L 494.839844 224.226562 L 495.84375 223.160156 L 341.003906 77.320312 L 322.667969 78.128906 L 239.714844 -0.00390625 L 237.578125 -0.00390625 L 322.113281 79.613281 L 340.449219 78.808594 " fill-opacity="1" fill-rule="nonzero"/><path fill="#059669" d="M 416.734375 95.832031 L 474 150.039062 L 475.011719 149.246094 L 417.308594 94.835938 L 398.703125 95.398438 L 297.4375 -0.00390625 L 295.710938 -0.00390625 L 398.125 96.390625 L 416.734375 95.832031 " fill-opacity="1" fill-rule="nonzero"/><path fill="#059669" d="M 455.367188 150.886719 L 503.304688 196.042969 L 504.308594 194.976562 L 455.917969 149.394531 L 437.582031 150.203125 L 278.105469 -0.00390625 L 275.96875 -0.00390625 L 437.027344 151.691406 L 455.367188 150.886719 " fill-opacity="1" fill-rule="nonzero"/><path fill="#059669" d="M 356.1875 112.25 L 387.902344 142.105469 L 388.902344 141.023438 L 356.765625 111.261719 L 338.160156 111.816406 L 219.554688 -0.00390625 L 217.890625 -0.00390625 L 337.585938 112.808594 L 356.1875 112.25 " fill-opacity="1" fill-rule="nonzero"/><path fill="#059669" d="M 389.464844 161.132812 L 452.3125 220.328125 L 453.3125 219.261719 L 390.015625 159.644531 L 371.679688 160.453125 L 201.324219 -0.00390625 L 199.1875 -0.00390625 L 371.128906 161.941406 L 389.464844 161.132812 " fill-opacity="1" fill-rule="nonzero"/><path fill="#059669" d="M 254.304688 67.976562 L 182.128906 -0.00390625 L 179.996094 -0.00390625 L 253.300781 69.042969 L 254.304688 67.976562 " fill-opacity="1" fill-rule="nonzero"/></svg>