<svg xmlns="http://www.w3.org/2000/svg" xmlns:xlink="http://www.w3.org/1999/xlink" width="500" zoomAndPan="magnify" viewBox="0 0 375 374.999991" height="500" preserveAspectRatio="xMidYMid meet" version="1.0"><defs><g/><clipPath id="278b125026"><path d="M 52.503906 51.925781 L 323.652344 51.925781 L 323.652344 323.074219 L 52.503906 323.074219 Z M 52.503906 51.925781 " clip-rule="nonzero"/></clipPath><clipPath id="48b3615ec3"><path d="M 188.078125 51.925781 C 113.203125 51.925781 52.503906 112.625 52.503906 187.5 C 52.503906 262.375 113.203125 323.074219 188.078125 323.074219 C 262.953125 323.074219 323.652344 262.375 323.652344 187.5 C 323.652344 112.625 262.953125 51.925781 188.078125 51.925781 Z M 188.078125 51.925781 " clip-rule="nonzero"/></clipPath></defs><g clip-path="url(#278b125026)"><g clip-path="url(#48b3615ec3)"><path fill="#2e2e2e" d="M 52.503906 51.925781 L 323.652344 51.925781 L 323.652344 323.074219 L 52.503906 323.074219 Z M 52.503906 51.925781 " fill-opacity="1" fill-rule="nonzero"/></g></g><g fill="#ededed" fill-opacity="1"><g transform="translate(79.55659, 250.771631)"><g><path d="M 122.53125 -60.03125 L 79.921875 -0.5625 L 36.9375 -60.21875 L 36.9375 0 L 15.71875 0 L 15.71875 -126.515625 L 79.921875 -37.125 L 143.75 -126.515625 L 143.75 0 L 122.53125 0 Z M 122.53125 -60.03125 "/></g></g></g><g fill="#ededed" fill-opacity="1"><g transform="translate(201.133927, 250.771631)"><g><path d="M 67.984375 -103.21875 L 14.390625 -103.21875 L 14.390625 -124.625 L 103.03125 -124.625 L 49.234375 -21.21875 L 102.84375 -21.21875 L 102.84375 0 L 14.203125 0 Z M 67.984375 -103.21875 "/></g></g></g></svg>